<svg width="332" height="146" viewBox="0 0 332 146" fill="none" xmlns="http://www.w3.org/2000/svg">
<g clip-path="url(#clip0_307_3713)">
<path d="M72.906 0C32.6411 0 0 32.6411 0 72.906C0 113.171 32.6411 145.812 72.906 145.812C113.171 145.812 145.812 113.171 145.812 72.906C145.812 32.6411 113.171 0 72.906 0ZM72.906 121.509C46.0653 121.509 24.3032 99.7467 24.3032 72.906C24.3032 46.0653 46.0615 24.3032 72.906 24.3032V72.906H121.509C121.509 99.7504 99.7467 121.509 72.906 121.509Z" fill="#232323"/>
<path d="M43.8774 72.9059H72.9059V101.934C56.8729 101.934 43.8774 88.9389 43.8774 72.9059Z" fill="#232323"/>
<path d="M193.02 102.852C176.506 102.852 163.074 89.4164 163.074 72.9022C163.074 56.388 176.51 42.9526 193.02 42.9526C209.53 42.9526 222.97 56.388 222.97 72.9022C222.97 89.4164 209.534 102.852 193.02 102.852ZM193.02 59.6021C185.686 59.6021 179.72 65.568 179.72 72.9022C179.72 80.2364 185.686 86.2022 193.02 86.2022C200.354 86.2022 206.32 80.2364 206.32 72.9022C206.32 65.568 200.354 59.6021 193.02 59.6021Z" fill="#232323"/>
<path d="M227.973 85.2399V44.2119C227.973 44.0277 228.123 43.8774 228.307 43.8774H244.901C245.085 43.8774 245.235 44.0277 245.235 44.2119V84.3414C245.235 84.5256 245.386 84.676 245.57 84.676H264.227C264.411 84.676 264.561 84.8264 264.561 85.0106V101.604C264.561 101.788 264.411 101.938 264.227 101.938H244.671C235.45 101.938 227.977 94.465 227.977 85.2436L227.973 85.2399Z" fill="#232323"/>
<path d="M310.048 101.934L299.488 87.5142L288.925 101.934H267.633L288.838 72.9059L267.52 43.8774H288.812L299.488 58.2939L310.16 43.8774H331.453L310.13 72.9059L331.34 101.934H310.048Z" fill="#232323"/>
</g>
<defs>
<clipPath id="clip0_307_3713">
<rect width="331.453" height="145.812" fill="white"/>
</clipPath>
</defs>
</svg>
